<?xml version="1.0" encoding="utf-8"?>
<!-- Svg Vector Icons : http://www.onlinewebfonts.com/icon -->
<!DOCTYPE svg PUBLIC "-//W3C//DTD SVG 1.1//EN" "http://www.w3.org/Graphics/SVG/1.1/DTD/svg11.dtd">
<svg version="1.1" xmlns="http://www.w3.org/2000/svg" xmlns:xlink="http://www.w3.org/1999/xlink" x="0px" y="0px" viewBox="0 0 1000 1000" enable-background="new 0 0 1000 1000" xml:space="preserve">
<metadata> Svg Vector Icons : http://www.onlinewebfonts.com/icon </metadata>
<g><g id="_x33_e91140ac1bfb9903b91c1b0ca08a1f6"><path d="M508.1,500.2c0,57-21,102.3-61.5,102.3c-40.1,0-61.8-45.6-61.8-101.2c0-51.9,19.5-101.2,62.2-101.2C488.6,400.1,508.1,448.3,508.1,500.2z M990,173.3v653.3c0,89.8-73.5,163.3-163.3,163.3H173.3C83.5,990,10,916.5,10,826.7V173.3C10,83.5,83.5,10,173.3,10h653.3C916.5,10,990,83.5,990,173.3z M289.9,438h-54.5v204.9h54.5V438z M291.7,382.1c0-16.9-11.8-29.1-29.4-29.1c-16.9,0-29.1,12.1-29.1,29.1c0,16.6,11.8,29.1,29.1,29.1C279.2,411.1,291.7,399.7,291.7,382.1z M565.1,498c0-75.4-38.3-142.4-116.6-142.4c-74,0-120.7,62.2-120.7,146.8c0,82,42.3,144.6,117,144.6C515.1,647,565.1,596.6,565.1,498z M766.8,561.3c0-37.2-20.2-63.3-65.5-83.5c-34.6-15.8-48.6-25-48.6-45.3c0-15.8,12.9-31.3,41.6-31.3c23.2,0,40.5,7,50.4,12.1l11.4-44.5c-13.3-6.6-33.9-12.9-60.7-12.9c-61.1,0-97.5,35.7-97.5,82.1c0,36.8,26.5,63.3,69.2,81.7c31.3,13.6,44.9,25.8,44.9,46c0,21-15.8,35.3-46,35.3c-22.8,0-46.4-7-61.1-15.8l-10.7,45.6c13.2,8.1,41.6,15.8,69.5,15.8C729.6,646.6,766.8,610.6,766.8,561.3z"/></g></g>
</svg>